<?xml version="1.0" standalone="no"?>
<!DOCTYPE svg PUBLIC "-//W3C//DTD SVG 20010904//EN"
 "http://www.w3.org/TR/2001/REC-SVG-20010904/DTD/svg10.dtd">
<svg version="1.0" xmlns="http://www.w3.org/2000/svg"
 width="512.000000pt" height="512.000000pt" viewBox="0 0 512.000000 512.000000"
 preserveAspectRatio="xMidYMid meet">
<metadata>
Created by potrace 1.14, written by Peter Selinger 2001-2017
</metadata>
<g transform="translate(0.000000,512.000000) scale(0.100000,-0.100000)"
fill="#000000" stroke="none">
<path d="M2365 4953 c-186 -27 -357 -92 -512 -195 -98 -66 -253 -220 -316
-316 -73 -109 -150 -280 -173 -386 -35 -152 -44 -342 -23 -467 73 -430 346
-773 745 -934 147 -59 250 -79 424 -79 85 -1 173 2 195 6 22 4 54 10 70 13 78
15 205 60 293 106 500 255 756 818 618 1361 -150 589 -725 977 -1321 891z
m255 -197 c287 -20 569 -189 734 -441 109 -166 157 -319 162 -520 4 -150 -14
-259 -65 -390 -116 -300 -387 -535 -699 -606 -86 -19 -136 -24 -242 -23 -480
6 -882 352 -964 829 -14 78 -14 268 -1 330 46 216 125 372 266 520 144 151
334 253 544 292 43 8 168 19 180 17 6 -2 44 -5 85 -8z"/>
<path d="M2290 2255 c-148 -22 -168 -25 -247 -46 -362 -95 -675 -283 -923
-555 -74 -82 -93 -105 -156 -194 -188 -265 -311 -591 -349 -925 -12 -101 -14
-132 -16 -214 -1 -94 14 -128 68 -146 19 -7 669 -10 1871 -10 1510 1 1845 3
1865 14 41 22 52 55 50 150 -14 676 -350 1290 -901 1646 -197 127 -501 241
-722 271 -178 25 -404 28 -540 9z m420 -199 c47 -5 125 -19 244 -42 56 -11
232 -76 321 -119 340 -163 633 -461 795 -810 68 -145 126 -322 146 -445 11
-70 14 -88 18 -120 3 -19 8 -61 11 -92 l6 -58 -1725 0 -1725 0 4 42 c2 24 7
70 10 103 16 155 87 403 161 561 123 263 281 457 544 668 30 23 195 123 240
143 113 53 203 87 325 123 45 13 185 38 257 46 34 3 64 7 65 8 5 4 255 -2 303
-8z"/>
</g>
</svg>
